<?xml version="1.0" encoding="UTF-8"?><svg id="a" xmlns="http://www.w3.org/2000/svg" viewBox="0 0 1049.09 607.79"><path d="M857.43,9.49c-.28.84-.84,1.67-1.12,2.23-.28.56-.28,1.12-.56,1.67-.28.84-.84,1.67-1.12,2.23-.28.56-.28,1.12-.56,1.67-.28.56-.84.84-1.12,1.39-.84,1.95-1.12,3.35-1.95,5.02-.28.56-.84,1.12-1.12,1.39-.28.56,0,1.12-.28,1.67-.84,1.39-1.95,3.35-2.79,4.74-.28.28-.28.84-.56,1.39-.28.84-.84,1.4-1.12,1.95-.28.28,0,.56-.28,1.12-.28.56-.84.84-1.12,1.39-.28.56-.28,1.39-.56,1.95-.84,1.39-1.95,3.35-2.79,4.74-.28.84-.56,1.4-.84,2.23-.28.28-.84.56-1.12,1.12-.28.28,0,.84-.28,1.4-.28.28-.56.56-.84.84-.28.56-.28,1.12-.56,1.95-.28.56-.84.84-1.12,1.4-.28.84-.56,1.67-1.12,2.23,0,.56-.56.84-.84,1.12-.28.56-.28,1.12-.56,1.67-1.12,1.67-1.67,3.35-2.79,5.3-1.12,2.51-2.79,5.02-4.46,7.53-.28.56-.28,1.12-.56,1.67-1.39,2.23-2.79,4.74-4.18,6.7-.28.84-.28,1.39-.56,1.95-1.4,1.95-2.51,4.18-3.63,6.14-.28.56-.56,1.12-.84,1.95-3.35,5.02-6.42,10.32-8.93,16.18-.56,1.12-1.39,2.51-1.95,3.63-1.67,3.91-3.63,7.25-5.3,11.16-1.12,2.51-2.79,5.3-4.18,7.81-.84,1.95-1.4,3.91-2.51,5.86-5.3,10.04-10.04,20.37-15.07,30.97-1.12,2.51-2.51,5.02-3.91,7.81,0,.56-.56.84-.56,1.12-3.35,7.53-6.97,14.79-10.6,21.76-.28.84-.28,1.39-.56,2.23-1.4,1.95-1.95,4.18-3.07,6.42-1.67,3.07-3.07,6.14-4.74,9.49-3.91,8.65-8.09,17.02-12,25.67-1.95,4.18-4.18,8.09-5.86,12-7.81,17.3-16.46,34.04-23.99,51.33-2.23,5.3-5.02,10.88-7.81,15.9-.84,1.95-1.39,3.63-2.23,5.58-1.67,3.63-3.63,7.53-5.58,11.16,0,.56,0,1.12-.28,1.39-4.18,8.37-8.09,17.02-12,25.67-.56,1.12-1.39,2.51-1.95,3.63-1.95,4.74-4.18,9.21-6.14,13.67-.28.56-.56,1.12-.84,1.4-.56,1.39-.84,2.51-1.67,3.91-.56,1.12-1.39,2.23-1.39,3.91.56.28,1.95.28,3.07.28,1.12-.84,4.74-.28,6.14-.28s3.35,0,4.74-.28c1.67-.56,3.91,0,5.58-.28h3.63c3.35-.84,7.81,0,11.16-.84l11.44-.28c1.12-.28,2.51,0,3.63-.28,1.39-.28,3.07,0,4.46-.28,3.07-.84,4.74-.28,5.86,2.23.28.28.56,1.12.28,2.23-1.12,3.91-3.91,2.51-7.81,3.35h-2.79l-15.34.56h-2.79c-3.35.56-7.53-.28-10.88.56h-5.3c-.84,0-2.23-.28-3.35,0-4.74,1.12-11.16-.28-15.62.84-1.12,2.51-2.51,5.02-3.35,7.25-1.12,2.51-1.67,4.46-2.79,6.7-.56,1.12-1.39,2.23-1.95,3.35-2.79,6.42-5.58,12.83-8.65,18.97-.28.28-.28.84-.28,1.12-.28.56-.84,1.12-1.12,1.67v.84c-.56,1.12-1.67,2.51-2.23,3.91-1.4,3.07-2.51,5.86-3.91,9.21-1.12,2.51-2.79,5.58-4.18,8.37-4.18,10.32-8.93,20.09-13.67,30.41,0,.56-.56,1.12-.84,1.95-2.23,5.02-4.46,9.49-6.42,14.51-.28.56-.84,1.12-1.12,1.67-.28.56-.28.84-.56,1.4-.56,1.39-1.4,2.79-1.95,4.18-1.39,2.51-1.95,4.74-3.07,7.53-.28.28-.84.84-1.12,1.12,0,.84-.28,1.39-.28,1.95-.28.56-.84.84-1.12,1.4-3.35,7.81-6.7,15.06-10.32,22.88-1.95,4.46-4.74,9.21-6.7,13.95-2.51,5.86-5.3,11.16-7.81,16.74-.28.56-.84,1.12-1.12,1.67-.28.84-.28,1.39-.56,1.95-.28.56-.84,1.12-1.12,1.67-.28.84-.28,1.4-.56,1.95-.28.28-.56.28-.84.56-.28.84-.28,1.67-.56,2.23-1.67,2.51-3.07,5.3-4.18,8.37-.56.84-1.12,1.39-1.39,1.95-1.67,3.63-5.02,12-11.44,9.48-5.86-2.51-3.07-9.21-1.39-13.95.84-2.51,2.51-5.3,3.63-7.53.28-.56.28-1.12.56-1.67,0-.56.56-1.12.84-1.67.28-.56.28-.84.56-1.4.28-.56.56-.84.84-1.39,1.39-2.79,2.23-5.02,3.35-7.81.56-.84.84-1.39,1.39-2.23,1.95-4.74,4.18-8.93,6.42-13.67,0-.56.56-1.12.84-1.4.28-.56.28-1.12.56-1.67.56-1.39,1.67-3.07,2.51-4.74,0-.28.28-.84.28-1.12.28-.56.84-1.12,1.12-1.67.84-1.67,1.12-3.07,1.95-4.74.56-1.67,1.95-3.35,2.79-4.74,2.79-6.7,6.14-12.55,8.93-18.97.28-.84.84-1.4,1.12-1.95,1.95-4.18,3.91-8.09,5.86-12.27.28-.84.84-1.4,1.12-2.23,0-.28.28-.56.28-1.12,0,0,.56-.28.56-.56.28-.56.56-1.67.84-2.23.84-1.4,1.95-3.07,2.51-4.46,1.12-2.79,2.23-5.3,3.63-7.81.84-1.12,1.12-2.51,1.67-3.91.28-.56.84-1.12,1.12-1.4.28-.56,0-.84.28-1.12.84-2.23,2.51-4.74,3.63-6.97,2.23-4.46,4.46-9.21,6.42-14.23.28-.28.56-.56.84-.84.84-1.4,1.39-2.79,1.95-4.46.28-.56.84-1.12,1.12-1.67.84-1.95,1.67-4.18,2.51-6.14,3.35-6.14,6.42-12.55,9.21-19.25,2.23-4.74,5.02-9.21,6.97-14.23.56-1.12,1.4-2.23,1.95-3.35.84-1.95,1.67-3.91,2.51-5.86.56-1.12,1.95-2.51,1.95-4.18h-.28c-.84-.56-3.63-.28-5.02-.28-4.46.28-8.93.28-13.67.56-.84-.28-3.63-.28-4.74,0-.56.28-1.67,0-2.23,0-.28,0-1.12.28-1.39.28-1.12.28-3.07,0-4.18,0-.28.28-1.12,0-1.95,0-2.23,0-5.86-.28-8.09.28-.56,0-1.4,0-1.67-.28-.84,0-5.3.28-5.58.56-.84.56-1.39,1.67-1.95,2.51-1.4,1.67-2.79,3.07-4.19,4.74-.28.28-.56.56-.84.84-.56.84-.84,1.4-1.39,1.95s-1.12.84-1.39,1.39c-2.23,2.79-4.46,5.02-6.42,7.81-.28.56-.84.56-1.12.84-.28.56-.56.84-.84,1.4-.56.84-1.67,1.67-2.51,2.51-4.19,5.58-9.76,10.32-14.23,16.18l-1.95,1.95c-1.67,1.95-3.35,3.63-4.74,5.58-.84.56-1.39,1.12-1.95,1.67-1.39,1.67-3.07,3.35-4.74,5.02-.56.84-1.39,1.39-1.95,1.95-1.39,1.95-3.07,3.35-4.74,5.02-1.12.84-1.95,2.23-3.07,3.35-.56.84-1.95,1.67-2.79,2.51-3.63,3.35-6.7,7.53-10.88,10.6-.56.56-1.12,1.12-1.4,1.67-3.07,2.51-5.58,5.3-8.65,7.81-.56.56-.84.84-1.39,1.4-2.51,1.67-4.46,3.91-6.97,5.86-1.12.84-1.95,1.95-3.07,2.79-6.42,5.02-12.55,10.32-19.25,15.07-1.39.84-2.79,1.95-4.18,3.07-.56.28-1.12.28-1.67.56-6.14,4.74-13.67,8.65-21.2,11.72-.84,0-1.67.28-2.51.28-3.07,1.12-8.09,2.51-12.27,1.4h-2.23c-9.49-2.23-13.67-8.37-15.9-17.85v-1.95c-.56-1.67-.84-4.46-.56-6.7,0-.84.28-1.95,0-2.79-.28-1.95.56-6.97,1.12-8.93v-1.4c0-.56.28-1.39.56-1.67v-2.23c.56-2.23,1.39-5.3,1.95-7.25.28-.84.28-1.95.56-2.79,0-.28.56-.56.56-1.12v-1.67c3.07-9.76,6.14-20.09,9.76-29.01.28-.56.28-.84.28-1.39,1.67-3.63,2.79-7.53,4.46-10.88.84-1.39.84-2.79,1.39-4.18l8.37-20.09c.84-1.39,1.39-3.07,1.95-4.74.56-1.12,1.4-1.95,1.67-3.63h-.28c-.56-.28-1.4,0-2.23,0-1.12,0-3.63,0-5.02-.28-1.67-.28-3.91,0-5.58,0-2.79,0-5.58,0-8.65-.28h-4.18c-3.35-.56-8.09.56-11.44,0h-2.79c-2.51-.56-5.86,0-8.37-.28-.84,0-1.67,0-2.23.28-3.35-.28-6.42-.28-9.49-.56h-4.18c-1.39-.28-3.07,0-4.18-.28-1.39-.28-3.07,0-3.91,0-2.23-.56-5.02.28-6.97-.28-2.51-.56-5.58.28-8.09,0h-1.95c-2.51-.56-6.14-.28-8.37-.28h-2.79c-1.95-.28-4.74.28-6.7-.28-1.95-.28-5.3-.28-7.53-.28h-5.86c-1.12-.28-3.07-.28-4.74-.28h-8.93c-1.95-.56-5.02-.28-6.97-.28h-2.23c-.84-.28-2.23,0-3.07-.28-2.23-.28-5.58-.28-7.81-.28-1.67,0-3.35,0-4.74-.28-1.95-.28-4.18.28-5.86,0-1.12-.28-4.19-.28-5.02,0h-1.12c-3.91-.56-8.65.28-12.55-.56-.84-.28-2.23,0-2.79-.28-1.12-.28-2.51,0-3.07,0h-2.51c-2.23,0-5.02,0-6.97-.28h-2.79c-2.23,0-4.46,0-6.42-.28h-1.12c-3.35-.56-7.53.28-11.16-.56-.84-.28-2.23,0-3.07-.28h-5.58c-1.95,0-4.18,0-5.86-.28h-2.79c-1.67-.28-3.91,0-5.3-.56-3.35,0-6.42,0-9.76-.28-.84,0-1.95.28-3.07,0-.84-.28-1.95,0-3.07,0-3.35-.84-7.25-.28-10.32-.84-2.51-.56-5.02,0-7.25-.28-2.51-.28-5.02-.28-7.53-.28-4.46-1.12-10.04,0-14.51-1.12h-4.18c-3.63-.84-8.09,0-12-.84-1.4-.28-2.51-.28-3.91-.28-3.35-.84-7.53-.28-10.88-.84-1.39,0-2.51-.28-3.63-.28-3.07-.56-6.42-.28-9.21-.84-1.12,0-2.51,0-3.63-.28-1.67-.28-3.91,0-5.86-.56-1.67-.28-3.63,0-5.58-.28-5.02-1.12-10.6-.84-15.62-1.95h-2.79c-4.18-1.12-9.21-.84-13.39-1.95-1.39-.28-2.23,0-3.63-.28-3.63-.84-7.53-.84-11.16-1.95-1.67-.28-2.79,0-4.46-.56-3.91-1.12-8.37-1.12-12.28-2.23-12-3.35-23.99-5.58-32.92-11.44-.56-.56-1.12-.56-1.67-.84-4.46-2.79-8.93-6.97-11.16-12.27,0-.56-.28-1.39-.28-1.95-.84-2.23-1.4-5.86-.56-8.65,1.95-8.37,5.3-13.39,9.76-19.53,1.12-1.39,2.51-2.79,3.91-4.46l1.95-1.95c1.12-1.67,2.79-3.07,4.46-4.46,2.23-2.23,4.18-4.46,6.97-6.42,0-.56.28-.84.56-1.12,1.67-1.12,3.07-2.79,4.74-4.18,6.14-4.74,11.72-10.32,18.13-14.79,7.53-5.86,15.06-11.72,22.88-17.3,8.09-5.86,16.46-11.44,24.55-17.02,15.34-10.88,30.97-21.2,47.15-31.25,3.07-1.95,6.14-4.46,9.48-6.42,10.6-6.7,21.48-13.11,32.36-19.81,3.63-2.23,7.25-4.18,10.88-6.7.56-.28.84-.28,1.39-.56,1.39-.84,3.07-1.95,4.46-2.79.56-.28.84-.28,1.12-.56,8.37-5.02,17.3-9.76,25.67-14.79.56-.56,1.12-.56,1.67-.84,2.79-1.67,5.86-3.35,8.65-5.02.56-.28,1.12-.28,1.67-.56,10.32-6.97,22.32-11.72,32.92-18.41.56-.28,1.12-.28,1.67-.56,1.67-.84,3.35-1.95,4.74-2.79.56-.28,1.12-.28,1.67-.56,2.23-1.39,5.02-2.79,7.25-4.18.56,0,.84,0,1.4-.28,5.58-3.07,11.44-6.42,17.58-8.93.56-.28,1.39-.84,2.23-1.4.56-.56,1.67-.56,2.51-1.12.84-.56,2.23-1.4,3.35-1.67,7.81-3.63,15.34-7.81,23.43-11.16l1.12-1.12c18.97-8.37,37.94-17.3,56.91-25.39,12-5.3,23.99-9.49,35.71-14.51,1.67-.84,3.35-.84,4.74-1.67,2.51-1.12,5.3-2.23,7.53-3.07.56,0,1.12-.28,1.95-.28,4.74-2.51,10.04-3.91,15.34-5.86,13.39-5.02,27.9-9.21,41.85-13.95,1.39-.28,2.23-.28,3.63-.56,3.63-1.12,8.09-2.23,12-3.35,1.95-.84,4.18-.84,6.42-1.4,4.46-1.39,10.04-2.23,14.79-3.35,2.51-.56,5.02-.56,7.53-1.39h1.39c2.23-.28,5.3-.56,7.53-1.12h3.91c2.51-.56,6.14-.84,8.37-.56,1.95.28,4.18-.28,6.14.28.56,0,1.12-.28,1.67-.28,2.79.56,5.86.56,8.65,1.39,5.3,1.12,10.32,2.79,14.51,5.3,1.4,1.12,2.79,2.51,4.18,3.63.84.84,1.95,1.67,2.79,2.51,2.79,3.91,4.74,8.37,6.14,13.67,1.67,6.42,1.12,18.13-.28,24.27-.28,1.12-.28,2.23-.56,3.63-1.4,5.3-2.51,10.88-4.18,15.62,0,.56,0,1.12-.28,1.95-1.39,3.63-2.51,7.81-3.91,11.44-.28.84-.28,1.39-.28,1.95-3.91,10.32-7.81,20.64-12.28,30.41-4.46,10.6-8.93,20.64-13.39,31.25-.28.28-.56.56-.84,1.12-.84,1.12-.84,2.51-1.39,3.63-.28.56-.84.84-1.12,1.4-.28.56,0,1.12-.28,1.67-.84,1.67-1.95,3.63-2.79,5.3-.28.56-.28,1.12-.56,1.95-3.91,7.25-7.53,14.79-10.88,22.6-.56,1.12-1.39,2.51-1.95,3.63-1.12,1.95-1.67,3.91-2.51,5.86-.28.84-1.12,1.39-1.39,1.95-1.39,3.35-2.79,6.14-4.18,9.49-.56,1.12-1.39,2.51-1.95,3.63-.84,2.23-1.67,4.18-2.79,6.14,0,.28-.56.56-.56.84-.28.56-.28.84-.56,1.39-.84,1.67-1.95,3.63-2.79,5.3-.56.84-.56,1.67-.84,2.51-.56.84-1.12,1.67-1.67,2.79,0,.28,0,.84-.28,1.12-3.63,7.53-7.53,14.79-10.88,22.6-.28.56-.56.84-.84,1.12-.28.56-.28.84-.28,1.4-.56,1.12-1.39,2.23-1.95,3.35-4.46,10.04-9.21,19.25-13.67,29.29-2.23,5.3-5.3,10.6-7.81,15.9-5.3,12-10.6,23.71-15.9,35.99-1.95,4.74-4.46,9.49-6.42,14.79-.56,1.67-2.51,4.74-2.79,6.7q.28.28.56.28c.56.28,2.23,0,3.07,0,.84.28,1.95,0,2.79,0,1.39.28,3.07.28,4.46.28h35.15c1.67,0,3.63.28,5.02,0,.56,0,1.95,0,2.51.28.56,0,1.12,0,1.67-.28,1.12-.28,2.51.28,3.91,0,.84,0,1.39.28,2.23.28,1.12,0,1.95-.28,3.07-.28.56.28,1.95.28,2.51,0,1.12-.28,2.79.28,3.91,0,1.12,0,2.51.28,3.91.28.84-.28,1.67,0,3.07,0,2.51-.28,5.3,0,7.81-.28,1.39,0,2.23.28,3.07,0h10.04c7.81,0,14.23.28,21.48-.28.84-.84,1.95-1.67,2.79-2.79,2.51-3.35,5.02-6.42,7.53-9.76.56-.28.84-.84,1.39-1.12,2.79-3.91,5.86-7.53,8.65-11.16.56-.56.84-.84,1.12-1.12,5.02-6.7,10.32-13.11,15.34-20.09,1.12-1.67,2.79-3.07,3.91-4.46,3.35-5.02,7.25-9.76,10.6-14.79.84-1.12,1.67-1.95,2.51-2.79,1.12-1.67,1.95-3.07,3.07-4.74.84-1.39,2.23-2.79,3.07-4.18,3.07-4.18,6.14-8.37,9.21-12.55,10.04-13.95,19.53-28.18,29.29-42.4,1.12-1.39,1.95-3.07,2.79-4.74,1.39-2.23,3.07-4.18,4.46-6.42.84-1.12,1.39-2.51,2.23-3.63.84-1.39,1.95-2.79,3.07-4.18.56-.84,1.12-2.23,1.67-3.35,2.23-3.35,5.02-6.7,6.97-10.32,4.18-6.42,8.37-13.11,12.55-19.53,1.39-1.95,2.23-3.91,3.35-5.86,6.7-10.6,13.11-21.48,19.81-32.08,1.12-1.95,1.95-3.91,3.07-5.86,3.91-6.14,7.25-12.83,11.16-18.69.28-.56.56-1.12.56-1.67,1.67-2.23,3.07-5.02,4.74-7.53.84-1.12,1.12-2.51,1.95-3.91,1.12-1.95,2.23-3.91,3.63-5.86.28-.56.28-.84.56-1.39.56-1.12,1.4-2.23,1.95-3.35,1.12-1.4,1.39-2.79,2.23-4.18,3.07-5.02,5.58-10.6,8.65-15.62,1.12-1.67,1.39-3.35,2.51-5.02,1.39-2.23,2.51-5.02,4.18-7.53,0-.28.56-.84.84-1.12.28-.56,0-.84.28-1.39,4.74-8.65,9.49-17.58,13.95-26.22.28-.56.28-1.12.56-1.39,0-.56.56-1.12.84-1.67.56-.56.56-1.39.84-1.95,2.51-4.74,5.02-9.48,7.25-14.51.28-.56.84-1.12,1.12-1.67,2.23-5.58,5.02-10.6,7.53-15.9.84-1.67,1.12-3.07,1.95-4.74.84-1.95,1.95-3.63,2.79-5.58,1.39-3.07,3.07-8.37,5.58-10.32.84-.56,1.95-.84,3.07-1.12.28-.28.84,0,1.12-.28,4.46.28,8.93,4.18,7.53,9.49ZM471.05,390.29c1.95-3.91,3.63-8.09,5.3-12.28,2.79-6.14,6.14-12.27,8.93-18.41,1.39-3.35,3.07-6.42,4.46-9.49,0-.28,0-.84.28-1.39,3.91-7.53,7.53-15.34,11.16-23.16.84-1.95,1.95-3.91,2.79-5.58,5.58-12,11.72-23.43,17.02-35.43.84-1.67,1.95-3.35,2.79-5.02.28-.56.28-1.39.84-2.23,0-.28.56-.56.84-.84,3.63-7.81,7.25-15.34,11.16-22.6v-1.39c.56-1.12,1.67-2.23,2.23-3.35s.56-2.23,1.12-3.35c.28-.28.84-.56.84-1.12,1.39-2.79,2.51-5.58,3.91-8.37,1.12-2.23,2.79-5.02,3.91-7.53.28-.56.28-.84.56-1.39.28-.56.84-1.12.84-1.67.56-1.12.84-1.95,1.39-3.07,0-.28.56-.84.84-1.12.84-1.95,1.4-3.63,2.23-5.58.56-.56.84-1.39,1.39-1.95.28-1.12.56-1.95.84-2.79,7.81-14.79,14.51-30.41,21.2-45.75.28-.56.84-.84.84-1.12.28-.56.28-1.12.56-1.67.28-1.12,1.4-2.51,1.67-3.63.28-.28.28-.84.28-1.12.28-.84.84-1.39,1.12-1.95,0-.56.28-.84.28-1.4,1.67-3.07,3.07-6.7,4.19-10.04,1.67-4.18,3.91-8.37,5.3-12.55.28-.56.28-1.12.56-1.67,2.79-6.7,5.3-13.95,7.53-20.92,1.67-4.74,2.79-9.76,4.18-14.51,1.39-4.74,1.67-9.76,2.79-14.51.56-2.23,0-4.74.56-6.97.28-1.4.28-3.07,0-4.46,0-1.12.28-2.23,0-3.35-.28-1.67-.28-3.35-.56-4.74-.84-3.35-1.67-6.42-3.63-8.93-5.86-8.37-17.02-10.32-30.97-10.6-1.12.28-4.46,0-5.86.28-2.51,0-5.58,0-8.09.56h-1.67c-3.91,1.12-8.37,1.12-12,2.23h-1.4c-6.7,1.67-13.95,2.51-20.64,4.18-5.3,1.67-10.6,2.79-15.9,4.46-1.39.56-2.51.28-3.91.84-4.18,1.39-8.93,2.79-12.83,4.18-1.39.28-2.51.28-3.63.56-5.3,1.95-10.6,3.63-16.18,5.3-3.07,1.12-6.97,2.51-10.04,3.91-1.39.28-2.51.56-3.91.84-4.74,2.23-10.32,3.91-15.07,5.86-1.12.28-1.95.56-2.79.84-3.63,1.4-7.25,2.79-10.6,4.19-1.39.56-2.51.84-3.91,1.39-13.39,5.58-26.78,10.6-40.17,16.46-15.9,6.97-31.52,14.23-47.43,21.48-.56.28-.84.84-1.4.84-4.18,1.95-7.81,3.91-12,5.58-1.67.84-3.63,2.23-5.58,3.07-4.74,1.95-9.21,4.18-13.39,6.7-.56.28-1.39.28-1.95.56-2.23,1.12-4.74,2.51-6.7,3.63-.56.56-1.12.56-1.95.84-.84.28-1.67,1.12-2.23,1.4-.84.28-1.67.56-2.51.84-3.07,1.95-6.42,3.63-10.04,5.3-6.42,3.35-13.11,6.97-19.53,10.88-2.51,1.67-5.3,2.51-7.81,3.91-8.09,5.02-16.74,8.93-24.55,13.95-.84.56-1.95.84-2.79,1.39-1.39,1.12-3.07,1.95-4.74,3.07-.56.28-1.12.28-1.67.56-10.04,6.7-20.92,12-31.25,18.41-19.81,12.55-39.89,25.11-59.14,37.94-12.28,8.37-24.55,16.74-36.55,24.83-1.39,1.12-2.79,2.51-4.18,3.35-8.37,5.86-16.18,12.28-24.55,18.13-.56.56-1.12,1.39-1.67,1.95-5.58,3.91-10.6,8.65-15.9,12.55-1.12.84-1.95,2.23-3.35,3.07-.56.56-1.39.84-1.95,1.4-.28.56-.28.84-.84,1.12-2.23,1.95-3.91,4.18-6.14,5.86-1.67,1.67-3.35,3.07-4.46,4.74-.56.28-.84.56-1.12.84-1.39,1.12-2.79,2.51-3.91,3.91-4.74,6.42-10.04,11.72-12,20.64-.56,2.79.56,5.02,1.39,6.42,3.35,5.3,8.93,7.53,15.07,10.04,7.81,3.35,17.02,5.3,25.94,7.81,1.12.28,2.23,0,3.63.56,1.95.56,4.46.84,6.42,1.39,1.4.28,2.23,0,3.35.28,5.02,1.39,10.6,1.67,15.9,3.07,1.39.28,2.51,0,3.91.28,3.91.84,8.65.84,12.83,1.95,1.95,0,3.63.28,5.58.56,5.3,1.12,11.44.84,17.02,1.95h1.39c1.67.56,3.63.28,5.3.84h1.67c2.51.56,5.3.28,7.81.84h1.4c2.23.56,5.02.28,6.97.84h4.18c3.91.84,8.65.56,12.55,1.39h3.63c3.07.84,7.25.28,10.6,1.12h3.63c1.12.28,2.79.28,3.91.28h2.79c3.91,1.12,8.37.28,12.28,1.12,2.51.28,5.02.28,7.53.28,1.12.28,2.79,0,4.46.28,1.12.28,2.51,0,3.63.28,1.12.28,3.07,0,4.18.28,3.63.56,7.81,0,11.16.84,1.67.28,3.35-.28,4.74.28,4.18,0,8.09,0,12,.28,1.67.28,3.63,0,5.3.28s4.18.28,6.42.56c.56,0,1.12,0,1.67-.28.84.28,2.23,0,3.07.28.84.28,2.23,0,3.35,0,3.63.84,8.09,0,11.72.84,2.23.56,4.46,0,6.42.28,4.18,0,8.37.28,12.27.28,1.67.28,4.19.28,5.86.56h2.79c1.95.28,4.74-.28,6.97.28,1.67.28,3.91-.28,5.58,0,.56.28,4.18.28,4.74.28.28,0,.84-.28,1.39-.28.84.28,2.23,0,3.35.28,3.07.56,6.7,0,10.32.56,5.3.28,10.88.28,16.18.28,3.35.84,7.25,0,10.6.56h3.63c.84.28,1.67,0,2.51,0,1.39.28,3.07.28,4.74.28h2.79c1.95.56,4.46-.28,6.7.28,2.23.28,5.02-.56,7.25,0,1.95.56,4.74-.28,6.7.28,4.74.56,10.6-.28,15.07.56,4.46,0,8.93,0,13.39.28,2.23.28,5.02,0,7.25,0,3.91,0,8.37.28,11.72.28,1.67,0,3.63.28,5.02,0h1.67c1.12.28,3.07-.28,4.18,0,1.67.56,4.18.28,5.86.28,2.51,0,4.74.56,6.97,0ZM595.47,398.38c-.28-.28,0-.28-.28-.28q0-.28-.28-.28c-.56-.56-1.39,0-2.23-.28-1.67-.28-4.18,0-6.14,0h-23.16c-28.73,0-56.63-.28-84.53-.28-1.4,2.23-2.23,4.74-3.35,7.53-1.67,3.63-3.07,7.53-4.74,11.44-.56,1.4-.56,2.51-1.12,3.91-2.51,5.86-4.46,12-6.7,17.85,0,.56-.28.84-.28,1.39-2.51,6.97-5.02,14.79-7.25,22.32v1.39c-1.95,5.86-2.79,12.28-4.46,18.41-.56,1.95-.56,3.91-1.12,5.3v2.23c-1.4,7.25-1.67,22.04,4.18,24.27,4.18,1.67,10.04-.84,13.11-1.95,5.86-1.67,10.6-4.46,15.07-7.53.56-.28,1.12-.28,1.67-.56,2.23-1.39,4.74-3.07,7.25-4.74,1.95-1.39,3.63-3.07,5.58-4.18,8.93-5.58,15.9-12.83,24.27-18.97.56-.56,1.12-1.12,1.67-1.95,2.79-1.95,5.02-4.74,7.81-6.7.28-.56.56-.84.84-1.12,2.23-1.67,3.91-3.91,6.14-5.58,1.39-1.12,2.51-2.51,3.63-3.63,2.51-1.95,4.74-4.46,6.97-6.7,1.95-2.51,4.74-4.46,6.7-6.97.28-.28.56-.28.84-.56.56-.56.84-1.12,1.4-1.67.84-.84,1.95-1.67,2.79-2.51,4.18-5.3,9.49-9.49,13.67-14.79.56-.84,1.4-1.39,2.23-2.23,3.07-4.18,6.97-7.53,10.04-11.72.28-.28.84-.84,1.12-1.12.84-.84,1.39-1.67,1.95-2.23.28-.28.56-.56,1.12-.84,1.67-2.23,3.35-4.74,5.58-6.7ZM753.09,195.28h-.56c-2.51,3.91-5.3,8.09-7.81,12-.28.56-.28,1.12-.56,1.67-2.79,4.18-5.86,8.37-8.65,12.55-1.12,1.67-1.67,3.35-2.79,4.74-1.95,3.07-4.18,6.14-6.14,9.21-2.51,3.91-5.02,7.81-7.53,11.72-.28.56-.84.84-1.39,1.4-2.23,3.35-4.18,6.97-6.42,10.32-1.95,2.79-4.18,5.58-6.14,8.37-6.42,9.76-12.83,18.97-19.25,28.73-.84.84-1.67,1.95-2.51,2.79-1.95,2.79-3.35,5.3-5.3,8.09-3.63,5.02-7.53,10.04-11.16,15.06-8.65,11.72-17.3,23.16-25.94,34.87-3.63,4.74-7.53,9.49-11.16,14.51-.28.28-.56.56-.84.84-2.51,3.35-5.3,6.42-7.81,9.76-.56,1.12-1.67,1.67-2.23,2.79-1.4,1.67-2.79,3.63-4.18,5.3v.28c.56.56,1.95.56,3.07.28h7.25c.84-.28,1.95,0,2.79,0,.56,0,1.4-.28,1.95-.28h1.39c1.4,0,3.07.28,4.46,0,.84-.28,2.51,0,3.63-.28,1.95-.28,5.3,0,7.25-.28,1.95,0,4.46.28,6.42,0h2.23c1.95,0,3.91,0,5.3-.28,2.79-4.18,4.74-8.93,6.7-13.67.84-1.67,2.23-3.63,3.07-5.58.28-.28.28-.84.28-1.4,2.79-5.02,5.3-10.04,7.53-15.34,1.95-4.46,4.46-9.21,6.7-13.39.28-.56,0-1.12.28-1.39,1.67-2.79,2.79-5.86,4.18-8.93,1.39-2.79,3.35-5.86,4.74-8.93,1.39-3.35,2.79-6.7,4.46-10.04.56-1.4,1.67-3.07,2.23-4.74.84-1.67,1.39-3.35,2.51-5.3,0-.28.56-.56.84-1.12,3.35-8.09,7.81-16.18,11.44-24.27,2.23-5.02,4.46-9.49,6.42-14.23.28-.56.84-1.12,1.12-1.95.84-1.67,1.4-3.35,2.23-5.3,5.3-10.04,9.76-20.92,15.06-30.97,1.67-3.07,2.51-6.42,4.18-9.49,2.23-4.46,4.74-8.93,6.42-13.95.28-.28.84-.56,1.12-1.12v-1.12c.28-.56.84-.84,1.12-1.95Z" fill="#fff" stroke-width="0"/><path d="M717.39,410.65c2.23-5.3,4.74-10.04,6.97-15.06.56-1.4,1.67-2.79,2.23-4.19,1.12-1.95,1.95-4.18,3.35-6.14.28-.84.56-1.67.84-2.23.28-.56.84-.84.84-1.12,1.95-3.63,3.35-6.97,5.86-9.76.84-.84,2.51-2.23,4.74-1.67,2.51.56,6.14,3.35,4.74,7.25-.28.56-.84,1.12-.84,1.67-.28.56-.28.84-.56,1.39-.28.56-.84,1.12-1.12,1.67-.28.56-.28,1.12-.56,1.67-.28.56-.84.84-1.12,1.4-.28.56,0,.56-.28,1.12-.28,0-.28.28-.56.28-.56.56-.28,1.39-.84,1.95-.56,1.12-1.4,2.23-2.23,3.35-.84,1.4-1.12,3.07-2.23,4.46-.56,1.12-3.07,4.18-3.07,5.86h.56c.56-1.12,1.95-1.67,2.79-2.51,1.95-2.51,4.46-4.74,6.42-6.97,4.74-4.46,8.93-9.21,14.23-13.11.56-.56,1.12-1.12,1.67-1.67,2.51-1.95,5.02-4.18,7.53-5.86,4.19-2.79,12-5.3,15.07.28.28.84.28,1.39.56,2.23.28,1.12.84,1.95,1.12,3.07.28,1.67-.56,3.07-.84,4.19-.28.84-.28,1.67-.56,2.51-.28.56-1.12,1.39-1.39,2.23-.28.56-.28,1.12-.56,1.67-.28.28-.56.56-.84,1.12-.28.28,0,.84-.28,1.4-.28.56-1.12,1.12-1.39,1.67-.28.56-.28.84-.56,1.39-.84,1.67-3.07,3.63-3.35,5.86h.28c.84-.84,1.95-1.12,2.79-1.95,1.12-1.67,2.79-3.07,4.46-4.46,2.51-2.51,4.74-5.02,7.53-7.25.56-.56.84-1.12,1.39-1.67,3.35-2.23,6.14-5.3,9.49-7.81,1.12-.84,2.23-2.23,3.63-3.07,1.12-.56,3.35-1.67,4.74-1.95,2.51-.56,6.97,2.23,7.81,3.35,2.51,3.35,1.12,8.93,0,12.55-1.4,3.63-2.51,6.97-3.91,10.6-.28.28-.84.84-1.12,1.4,0,.56-.28,1.12-.28,1.67-.28.28-.56.84-.84,1.39s-.28,1.39-.56,2.23c-.56,1.12-1.4,2.23-1.95,3.35,0,.84-.28,1.4-.28,1.95-.56,1.39-1.39,1.95-1.39,3.91,2.51,0,6.14-3.63,8.09-5.02,5.02-3.63,9.49-7.25,14.51-11.16.28-.28.56-.56.84-1.12,1.4-.84,2.79-1.95,3.91-3.07.56-.56,1.12-1.12,1.95-1.67,1.4-1.12,2.79-2.79,4.46-3.63,3.07-1.4,6.7.28,7.81,2.23.56.56.84,1.39.84,1.95,1.67,5.02-3.63,7.25-6.14,9.21-1.12.84-2.23,1.95-3.35,2.79-2.51,1.67-4.46,3.91-6.97,5.86-1.12.84-1.95,1.95-2.79,2.79-3.07,2.23-5.58,4.74-8.37,6.97-.56.56-1.12,1.12-1.67,1.67-1.39.84-2.79,1.4-3.91,2.51-.28.28-.56.56-1.12,1.12-.28.28-1.12.28-1.67.84-.28.28-.56.56-.84.84-.84.56-1.67.84-2.23,1.12-.56.28-.84.84-1.12,1.12-.84.56-1.67.56-2.51.84-1.12.28-1.95,1.12-2.79,1.39-1.67.28-3.07-.28-4.46-.56h-2.23c-2.51-.84-4.46-2.51-5.3-5.02,0-.56-.28-1.39-.28-1.95-.84-2.23-1.12-3.35-.28-6.14v-1.67c0-.84.56-1.39.56-2.23.28-.84.28-1.67.56-2.51,1.67-4.18,3.07-8.65,4.74-12.83.28-.56.84-1.4,1.12-1.95.28-.84.56-1.39.56-1.95.28-.28.84-.84.84-1.12.28-.56.28-1.12.28-1.39.56-1.12,1.12-1.67,1.39-2.79q-.28-.28-.56-.28c-1.12,1.12-2.51,2.23-3.91,3.07-.56.56-1.12,1.39-1.67,1.95-1.95,1.39-3.63,3.35-5.3,5.02-.84.84-1.95,1.67-2.51,2.23-2.51,3.07-5.3,5.58-7.53,8.65-.56.56-.84.84-1.4,1.12-4.46,6.42-9.49,12.27-14.23,18.41-.56.84-1.67,1.4-2.51,2.23-.28.28-.28.84-.56,1.12-.56.56-1.67,1.4-2.51,1.67-2.79,1.12-7.25,0-9.21-1.67-1.12-1.12-2.51-3.91-1.67-6.7,0-.56.56-1.12.56-1.67.28-.56.28-1.12.28-1.67.28-.56.84-.84,1.12-1.39.28-.84.28-1.4.56-1.95,2.79-5.3,5.3-11.44,8.37-16.46.28-.28.28-.84.56-1.39s.84-1.12,1.12-1.67c.28-.56.28-1.12.56-1.67,1.67-2.51,2.79-5.02,4.18-8.09.56-1.12,1.67-1.95,1.67-3.63-1.39,0-1.67,1.12-2.51,1.67-1.67,1.12-3.07,2.51-4.74,3.63-.56.56-1.12,1.4-1.67,1.95-2.51,1.67-4.74,3.63-6.42,6.14-1.39,1.67-3.35,2.79-4.46,4.46-1.12,1.12-2.23,1.95-3.35,3.07-1.12,1.67-2.51,2.79-3.63,4.46-1.12,1.39-2.51,2.51-3.63,3.91-.84.84-1.39,1.95-2.23,2.79-1.39,1.95-3.35,3.35-4.46,5.3-1.12,1.39-2.23,2.79-3.35,4.18-.28.56-.84.84-1.12,1.12-1.39,1.95-3.63,5.3-5.86,6.7-.84.56-3.07.84-4.46.28-1.95-.56-5.3-4.18-4.46-7.53,0-.56.56-1.12.84-1.67.84-2.23,1.4-4.18,2.51-6.42,1.4-3.35,3.63-6.97,5.02-10.32Z" fill="#fff" stroke-width="0"/><path d="M833.44,442.46c-1.95-.56-3.35-1.12-4.74-1.95-1.67-1.4-3.35-5.58-3.35-9.49l.56-4.18v-2.79c2.79-10.88,5.86-20.37,9.76-29.57l1.67-3.63c1.12-2.23,3.91-7.25,7.53-7.25.84,0,1.95.28,2.79,1.12,1.39.84,1.95,2.23,1.95,3.63,0,3.35-2.79,7.25-3.91,9.49l-3.07,4.46c-.84,1.67-1.39,3.63-2.79,5.3,0,.28-.56.56-.84,1.12l-3.35,8.09-.56,2.51c-1.12,3.07-2.23,7.25-2.23,11.44l.28,3.07c.56.28,1.12.56,1.95.56.84-.84,2.23-.84,3.35-1.39,1.39-.84,3.07-2.51,4.18-3.35,1.67-1.12,3.35-3.07,4.46-4.74,1.12-1.39,3.35-2.79,4.46-4.18,1.95-3.07,4.46-5.86,6.14-8.93,1.12-.84,1.4-1.67,1.95-3.07,0-.28.56-.56.84-1.12,1.12-1.67,1.95-3.91,3.35-6.14.56-.84,1.12-1.95,1.39-3.07-.84-.84-2.23-1.12-3.63-1.95l-3.91-3.07-1.12-1.39c-4.18-3.91-6.7-10.04-6.7-16.74,0-2.51.28-5.02,1.12-7.53.28-.84.84-1.67,1.4-2.23.56-1.39.84-2.51,1.39-3.35.56-.56,1.39-.84,1.67-1.39.84-.56,1.39-1.95,2.23-2.51,1.12-.56,2.23-.84,2.79-1.12.84-.84,1.39-1.39,2.51-1.67,1.39-.56,3.63-.28,5.02-1.12,1.95,0,3.07.56,4.46.84,1.39.56,2.23.28,3.63,1.12,3.91,2.79,6.97,8.09,6.97,14.23,0,1.67-.28,3.63-.84,5.58,0,.84,0,1.39-.28,2.23-.56,3.07-1.4,6.14-2.51,9.21-.28,1.12-1.12,2.23-1.12,3.35.84.28,1.95.56,3.07.56,2.79,0,5.58-.84,7.25-1.39,1.67-.28,3.07-1.12,5.02-1.39h.28c3.07,0,5.02,3.07,5.58,5.02v.84c0,2.23-2.51,4.46-3.91,5.02l-2.51.28c-3.07,1.12-6.97,1.39-10.6,1.39l-1.95.28-2.79-.28c-1.12-.28-2.51-.28-3.63-.28-1.95,3.07-3.63,6.7-5.58,10.04-6.14,9.49-12.83,19.53-21.76,26.22-2.23,1.39-4.46,3.35-7.25,4.46-.28,0-.84,0-1.4.28-.84.28-1.95.84-3.35.84l-1.39-.28ZM871.66,375.78c0-2.79-.28-5.3-1.67-6.7h-1.12c-.28.84-1.12.84-1.95,1.12-1.12.56-2.79,2.23-3.35,3.63-.84,1.67-1.12,3.07-1.12,4.46,0,3.35,1.67,6.42,3.91,8.09,1.12.56,1.39,1.67,2.79,1.95,1.39-2.23,2.51-7.81,2.51-12.55Z" fill="#fff" stroke-width="0"/><path d="M874.73,437.16c-.84-.56-1.12-1.67-1.12-2.79v-3.07c.84-3.35,2.51-6.42,3.91-9.21l1.12-3.63c.28-.56.84-.84.84-1.4.28-.56.28-.84.28-1.39.56-1.12,1.67-2.23,2.23-3.63l6.7-15.06c.56-1.39,1.67-2.51,2.23-3.35,1.67-3.91,3.35-7.53,5.3-10.88,1.95-3.63,3.35-7.25,5.58-10.6.56-1.39.84-2.79,1.67-4.18,1.67-2.23,2.79-5.02,4.46-7.53.84-1.39,1.67-3.63,3.07-4.74.56-.28,1.4-.28,1.95-.84,3.07,0,4.46,1.12,5.3,3.07l.28,2.23v.84c-.56,1.67-1.95,2.79-2.79,4.19-1.12,1.39-1.67,2.79-2.51,4.18-.84,1.39-1.95,2.79-3.07,4.18-.28.28-.28.84-.56,1.39-1.12,1.95-2.79,3.91-3.91,5.58l-3.07,5.86c-.28.56-1.12,1.39-1.39,2.23-1.39,2.51-2.79,5.3-4.46,7.81-.56,1.12-.84,2.51-1.67,3.91-1.67,2.51-2.79,5.58-4.46,8.65-.84,1.67-2.51,3.91-2.51,6.14h.28c.56-1.4,1.95-2.23,3.07-3.35,1.95-2.79,4.18-5.3,6.42-8.09.84-1.39,2.23-2.51,3.07-3.63,2.79-3.63,6.14-6.7,8.65-10.32l2.51-2.23c1.12-1.67,2.51-3.35,4.18-4.74l1.12-.84c1.39-1.67,2.79-3.07,4.46-4.18l3.91-3.63,1.95-.84c.28-.56.84-.84,1.39-1.12.84-.56,1.95-.28,2.79-.56,1.12-.56,1.95-.56,2.79-.56s1.95,0,2.79.56,1.4,1.39,1.67,1.95c.84.84,1.95,1.39,2.51,2.23.84,1.12.56,2.23,1.12,3.91,0,.56.56,1.12.56,1.4v2.51c0,.84.56,4.46.84,5.02.28.28.56.28.84.28,1.12-.84,2.23-1.39,3.35-1.95,1.4-1.12,2.51-2.51,4.19-3.35l2.23-.56c2.51,0,4.74,1.95,5.58,3.91l.28,1.95c0,1.4-.28,2.79-.84,3.63-.84,1.12-2.51,2.51-3.91,3.63-.56.28-.84,1.12-1.4,1.67-1.39,1.39-3.07,2.23-5.02,3.35-.56.28-1.12,1.12-1.95,1.39l-2.23.56c-.84,0-1.67.56-2.79.84h-.84c-1.67,0-2.79-.84-3.91-1.12l-1.67-.56c-2.23-.84-3.07-2.51-4.18-5.02-.28-.84-1.12-1.4-1.4-2.51-.84-2.79-.28-6.42-.84-9.49h-.56c-.56.56-1.12.84-1.67,1.12l-3.07,2.79-2.23,1.95c-1.39,1.39-2.79,2.79-3.91,4.46l-2.79,2.51c-2.23,2.79-4.74,5.02-6.97,7.81-5.02,6.7-10.6,12.83-15.62,19.81-.84,1.12-2.23,2.23-3.07,3.63-1.39,1.95-3.63,3.63-5.3,5.3-.84,1.12-1.67,2.23-3.07,2.79-1.12.56-2.51.84-3.63.84s-2.23-.28-3.07-1.12Z" fill="#fff" stroke-width="0"/><path d="M951.45,443.01l-2.79-.84c-1.4-.56-2.23-.28-3.07-.84-1.67-1.12-3.07-3.07-3.91-4.74-1.12-1.39-1.4-4.74-1.4-8.09,0-3.07.28-6.14.84-7.81,1.67-5.58,2.79-10.88,4.74-16.18,2.51-6.97,5.86-14.23,8.93-21.2,1.4-3.35,3.91-9.76,8.65-9.76.84,0,1.67,0,2.79.56,1.95.84,3.91,3.07,3.91,6.14l-.28,1.95c-.28.84-1.12,1.39-1.4,2.23l-.56,1.12c-.28,1.12-1.12,1.95-1.67,3.07l-2.23,3.63c-.28.56-.56,1.12-.56,1.67-1.67,2.23-2.51,5.02-3.91,7.53l-1.4,3.07c-1.67,3.63-2.51,7.53-3.91,11.44l-1.67,5.02v2.23c-.28.84-.56,2.51-.56,3.91l.28,1.67h1.4c.56-.56,1.67-.84,2.51-1.12,1.67-.84,3.35-1.95,5.02-3.07l.84-.84,5.58-3.91.56-1.12c1.67-1.12,3.07-2.51,4.46-3.63l1.67-1.95c1.4-1.12,2.51-2.23,3.63-3.63l1.95-1.95c2.51-3.35,5.58-6.14,8.09-9.48,3.91-5.58,8.09-10.88,11.72-16.74,1.4-1.67,1.67-3.91,2.51-5.86l1.12-1.67c.28-.84.28-1.39.84-2.23.84-.84,2.51-2.23,3.91-2.79l1.39-.28c3.63.28,5.02,2.23,6.14,5.3l.28,2.51-1.67,3.07c-.28.84-.28,1.39-.84,2.23-2.79,4.74-5.3,10.04-7.81,15.62-1.12,2.23-2.51,4.74-3.35,7.25l-3.07,8.09c-.84,2.79-2.51,8.09-2.51,12v1.4l1.12.28c.84-.84,1.95-1.12,3.07-1.95.28,0,.56-.56.84-.84l1.67-.56c2.51-1.67,4.46-3.63,6.97-5.58,2.79-1.95,5.02-4.74,7.81-6.7l1.67-1.95,3.63-3.07c.28-.56.84-1.12,1.39-1.67l3.07-2.51.56-1.12c2.79-2.23,5.02-4.74,7.53-7.25,1.39-1.67,3.07-3.07,4.74-4.74.84-.84,1.4-1.67,2.23-2.23.56-.28,1.12-.28,1.67-.28,1.67,0,3.35.84,4.18,1.95l.28,1.95c0,1.12-.28,2.23-.56,2.79-.84.84-2.23,1.67-3.35,2.51s-1.67,2.51-2.79,3.35c-1.95,1.4-3.63,3.07-5.3,4.74l-1.95,1.67-.84,1.12-1.4.84c-1.95,2.23-4.18,4.74-6.42,6.42-.28.56-.84,1.12-1.39,1.67-1.67,1.67-3.35,3.63-5.3,5.02l-2.23,2.79c-1.39.84-2.51,1.95-3.63,3.07l-1.4,1.39c-3.07,2.51-5.86,5.3-9.21,7.53-1.95,1.39-4.46,2.23-6.7,2.79h-.84c-.84,0-1.95-.28-2.51-.56-.84,0-1.39,0-2.23-.28-1.4-.56-3.63-3.35-4.18-5.02l-.28-1.95-.28-3.63c0-1.95.28-4.18.56-5.86v-1.12c.56-1.95,1.39-3.63,1.39-5.86h-.28c-2.23,2.23-4.18,4.74-6.14,7.25-1.12,1.4-2.51,2.51-3.35,3.91l-1.67,1.67c-1.95,2.79-5.3,6.14-8.09,8.09l-.84,1.12-4.18,3.07c-.56.28-1.12,1.12-1.67,1.67l-2.51.84c-.56.28-1.12.84-1.95,1.12l-2.79.56c-.56.28-1.67.56-2.51.56h-.84Z" fill="#fff" stroke-width="0"/></svg>